<svg
					xmlns="http://www.w3.org/2000/svg"
					viewBox="0 0 24 24"
					fill="none"
					stroke="currentColor"
					stroke-width="2"
					stroke-linecap="round"
					stroke-linejoin="round"
					class="w-5 h-5 text-white"
				>
					<path d="M14 14.5c0 1.4-1.1 2.5-2.5 2.5S9 15.9 9 14.5s1.1-2.5 2.5-2.5 2.5 1.1 2.5 2.5z"/>
					<path d="M8.5 8.5c0 1.4-1.1 2.5-2.5 2.5S3.5 9.9 3.5 8.5 4.6 6 6 6s2.5 1.1 2.5 2.5z"/>
					<path d="M20 8.5c0 1.4-1.1 2.5-2.5 2.5S15 9.9 15 8.5 16.1 6 17.5 6s2.5 1.1 2.5 2.5z"/>
					<line x1="6" y1="11" x2="9" y2="12"/>
					<line x1="15" y1="12" x2="18" y2="11"/>
					<line x1="12" y1="17" x2="12" y2="21"/>
				</svg>